# Blender 3.6.2
# www.blender.org
mtllib turret_base.mtl
o cube
v 1.500000 -0.000000 -1.500000
v -1.500000 -0.000000 -1.500000
v -1.500000 0.500000 -1.500000
v 1.500000 0.500000 -1.500000
v 1.500000 0.000000 1.500000
v 1.500000 0.500000 1.500000
v -1.500000 0.000000 1.500000
v -1.500000 0.500000 1.500000
vn -0.0000 -0.0000 -1.0000
vn 1.0000 -0.0000 -0.0000
vn -0.0000 -0.0000 1.0000
vn -1.0000 -0.0000 -0.0000
vn -0.0000 1.0000 -0.0000
vn -0.0000 -1.0000 -0.0000
vt 0.519531 0.937500
vt 0.332031 0.968750
vt 0.332031 0.937500
vt 0.519531 0.968750
vt 0.000000 1.000000
vt 0.187500 0.812500
vt 0.187500 1.000000
vt 0.000000 0.625000
vt 0.187500 0.625000
vt 0.000000 0.812500
s 1
usemtl m_4b0f9c16-aa4a-f07a-b072-5d1780238e6a
f 2/1/1 4/2/1 1/3/1
f 1/3/2 6/4/2 5/1/2
f 5/3/3 8/4/3 7/1/3
f 7/1/4 3/2/4 2/3/4
f 6/5/5 3/6/5 8/7/5
f 1/8/6 7/6/6 2/9/6
f 2/1/1 3/4/1 4/2/1
f 1/3/2 4/2/2 6/4/2
f 5/3/3 6/2/3 8/4/3
f 7/1/4 8/4/4 3/2/4
f 6/5/5 4/10/5 3/6/5
f 1/8/6 5/10/6 7/6/6
o cube.000
v 0.625000 0.500000 -1.062500
v -0.625000 0.500000 -1.062500
v -0.625000 0.813287 -1.062500
v 0.625000 0.813287 -1.062500
v 0.625000 0.500000 -0.625000
v 0.625000 0.813287 -0.625000
v -0.625000 0.500000 -0.625000
v -0.625000 0.813287 -0.625000
vn -0.0000 -0.0000 -1.0000
vn 1.0000 -0.0000 -0.0000
vn -0.0000 -0.0000 1.0000
vn -1.0000 -0.0000 -0.0000
vn -0.0000 1.0000 -0.0000
vn -0.0000 -1.0000 -0.0000
vt 0.078125 0.519531
vt 0.000000 0.539062
vt 0.000000 0.519531
vt 0.300781 0.449219
vt 0.328125 0.468750
vt 0.328125 0.449219
vt 0.300781 0.468750
vt 0.414062 0.675781
vt 0.492188 0.648438
vt 0.492188 0.675781
vt 0.078125 0.539062
vt 0.414062 0.648438
s 1
usemtl m_4b0f9c16-aa4a-f07a-b072-5d1780238e6a
f 10/11/7 12/12/7 9/13/7
f 9/14/8 14/15/8 13/16/8
f 13/11/9 16/12/9 15/13/9
f 15/16/10 11/17/10 10/14/10
f 14/18/11 11/19/11 16/20/11
f 9/18/12 15/19/12 10/20/12
f 10/11/7 11/21/7 12/12/7
f 9/14/8 12/17/8 14/15/8
f 13/11/9 14/21/9 16/12/9
f 15/16/10 16/15/10 11/17/10
f 14/18/11 12/22/11 11/19/11
f 9/18/12 13/22/12 15/19/12
o cube.001
v -0.625000 0.500000 -1.062500
v -1.062500 0.500000 -1.062500
v -1.062500 0.688287 -1.062500
v -0.625000 0.688287 -1.062500
v -0.625000 0.500000 -0.625000
v -0.625000 0.688287 -0.625000
v -1.062500 0.500000 -0.625000
v -1.062500 0.688287 -0.625000
vn -0.0000 -0.0000 -1.0000
vn 1.0000 -0.0000 -0.0000
vn -0.0000 -0.0000 1.0000
vn -1.0000 -0.0000 -0.0000
vn -0.0000 1.0000 -0.0000
vn -0.0000 -1.0000 -0.0000
vt 0.121094 0.437500
vt 0.093750 0.449219
vt 0.093750 0.437500
vt 0.082031 0.488281
vt 0.109375 0.460938
vt 0.109375 0.488281
vt 0.121094 0.449219
vt 0.082031 0.460938
s 1
usemtl m_4b0f9c16-aa4a-f07a-b072-5d1780238e6a
f 18/23/13 20/24/13 17/25/13
f 17/23/14 22/24/14 21/25/14
f 21/23/15 24/24/15 23/25/15
f 23/23/16 19/24/16 18/25/16
f 22/26/17 19/27/17 24/28/17
f 17/26/18 23/27/18 18/28/18
f 18/23/13 19/29/13 20/24/13
f 17/23/14 20/29/14 22/24/14
f 21/23/15 22/29/15 24/24/15
f 23/23/16 24/29/16 19/24/16
f 22/26/17 20/30/17 19/27/17
f 17/26/18 21/30/18 23/27/18
o cube.002
v -0.625000 0.500000 0.625000
v -1.062500 0.500000 0.625000
v -1.062500 0.688288 0.625000
v -0.625000 0.688288 0.625000
v -0.625000 0.500000 1.062500
v -0.625000 0.688288 1.062500
v -1.062500 0.500000 1.062500
v -1.062500 0.688288 1.062500
vn -0.0000 -0.0000 -1.0000
vn 1.0000 -0.0000 -0.0000
vn -0.0000 -0.0000 1.0000
vn -1.0000 -0.0000 -0.0000
vn -0.0000 1.0000 -0.0000
vn -0.0000 -1.0000 -0.0000
vt 0.121094 0.437500
vt 0.093750 0.449219
vt 0.093750 0.437500
vt 0.082031 0.488281
vt 0.109375 0.460938
vt 0.109375 0.488281
vt 0.121094 0.449219
vt 0.082031 0.460938
s 1
usemtl m_4b0f9c16-aa4a-f07a-b072-5d1780238e6a
f 26/31/19 28/32/19 25/33/19
f 25/31/20 30/32/20 29/33/20
f 29/31/21 32/32/21 31/33/21
f 31/31/22 27/32/22 26/33/22
f 30/34/23 27/35/23 32/36/23
f 25/34/24 31/35/24 26/36/24
f 26/31/19 27/37/19 28/32/19
f 25/31/20 28/37/20 30/32/20
f 29/31/21 30/37/21 32/32/21
f 31/31/22 32/37/22 27/32/22
f 30/34/23 28/38/23 27/35/23
f 25/34/24 29/38/24 31/35/24
o cube.003
v 1.062500 0.500000 0.625000
v 0.625000 0.500000 0.625000
v 0.625000 0.688288 0.625000
v 1.062500 0.688288 0.625000
v 1.062500 0.500000 1.062500
v 1.062500 0.688288 1.062500
v 0.625000 0.500000 1.062500
v 0.625000 0.688288 1.062500
vn -0.0000 -0.0000 -1.0000
vn 1.0000 -0.0000 -0.0000
vn -0.0000 -0.0000 1.0000
vn -1.0000 -0.0000 -0.0000
vn -0.0000 1.0000 -0.0000
vn -0.0000 -1.0000 -0.0000
vt 0.121094 0.437500
vt 0.093750 0.449219
vt 0.093750 0.437500
vt 0.082031 0.488281
vt 0.109375 0.460938
vt 0.109375 0.488281
vt 0.121094 0.449219
vt 0.082031 0.460938
s 1
usemtl m_4b0f9c16-aa4a-f07a-b072-5d1780238e6a
f 34/39/25 36/40/25 33/41/25
f 33/39/26 38/40/26 37/41/26
f 37/39/27 40/40/27 39/41/27
f 39/39/28 35/40/28 34/41/28
f 38/42/29 35/43/29 40/44/29
f 33/42/30 39/43/30 34/44/30
f 34/39/25 35/45/25 36/40/25
f 33/39/26 36/45/26 38/40/26
f 37/39/27 38/45/27 40/40/27
f 39/39/28 40/45/28 35/40/28
f 38/42/29 36/46/29 35/43/29
f 33/42/30 37/46/30 39/43/30
o cube.004
v 1.062500 0.500000 -1.062500
v 0.625000 0.500000 -1.062500
v 0.625000 0.688287 -1.062500
v 1.062500 0.688287 -1.062500
v 1.062500 0.500000 -0.625000
v 1.062500 0.688287 -0.625000
v 0.625000 0.500000 -0.625000
v 0.625000 0.688287 -0.625000
vn -0.0000 -0.0000 -1.0000
vn 1.0000 -0.0000 -0.0000
vn -0.0000 -0.0000 1.0000
vn -1.0000 -0.0000 -0.0000
vn -0.0000 1.0000 -0.0000
vn -0.0000 -1.0000 -0.0000
vt 0.121094 0.437500
vt 0.093750 0.449219
vt 0.093750 0.437500
vt 0.082031 0.488281
vt 0.109375 0.460938
vt 0.109375 0.488281
vt 0.121094 0.449219
vt 0.082031 0.460938
s 1
usemtl m_4b0f9c16-aa4a-f07a-b072-5d1780238e6a
f 42/47/31 44/48/31 41/49/31
f 41/47/32 46/48/32 45/49/32
f 45/47/33 48/48/33 47/49/33
f 47/47/34 43/48/34 42/49/34
f 46/50/35 43/51/35 48/52/35
f 41/50/36 47/51/36 42/52/36
f 42/47/31 43/53/31 44/48/31
f 41/47/32 44/53/32 46/48/32
f 45/47/33 46/53/33 48/48/33
f 47/47/34 48/53/34 43/48/34
f 46/50/35 44/54/35 43/51/35
f 41/50/36 45/54/36 47/51/36
o cube.005
v 0.625000 0.500000 0.625000
v -0.625000 0.500000 0.625000
v -0.625000 0.813288 0.625000
v 0.625000 0.813288 0.625000
v 0.625000 0.500000 1.062500
v 0.625000 0.813288 1.062500
v -0.625000 0.500000 1.062500
v -0.625000 0.813288 1.062500
vn -0.0000 -0.0000 -1.0000
vn 1.0000 -0.0000 -0.0000
vn -0.0000 -0.0000 1.0000
vn -1.0000 -0.0000 -0.0000
vn -0.0000 1.0000 -0.0000
vn -0.0000 -1.0000 -0.0000
vt 0.000000 0.519531
vt 0.078125 0.539062
vt 0.078125 0.519531
vt 0.328125 0.449219
vt 0.300781 0.468750
vt 0.300781 0.449219
vt 0.328125 0.468750
vt 0.414062 0.648438
vt 0.492188 0.675781
vt 0.492188 0.648438
vt 0.000000 0.539062
vt 0.414062 0.675781
s 1
usemtl m_4b0f9c16-aa4a-f07a-b072-5d1780238e6a
f 50/55/37 52/56/37 49/57/37
f 49/58/38 54/59/38 53/60/38
f 53/55/39 56/56/39 55/57/39
f 55/60/40 51/61/40 50/58/40
f 54/62/41 51/63/41 56/64/41
f 49/62/42 55/63/42 50/64/42
f 50/55/37 51/65/37 52/56/37
f 49/58/38 52/61/38 54/59/38
f 53/55/39 54/65/39 56/56/39
f 55/60/40 56/59/40 51/61/40
f 54/62/41 52/66/41 51/63/41
f 49/62/42 53/66/42 55/63/42
o cube.006
v -0.625000 0.500000 0.625000
v -0.625000 0.500000 -0.625000
v -0.625000 0.813287 -0.625000
v -0.625000 0.813288 0.625000
v -1.062500 0.500000 0.625000
v -1.062500 0.813288 0.625000
v -1.062500 0.500000 -0.625000
v -1.062500 0.813287 -0.625000
vn 1.0000 -0.0000 -0.0000
vn -0.0000 -0.0000 1.0000
vn -1.0000 -0.0000 -0.0000
vn -0.0000 -0.0000 -1.0000
vn -0.0000 1.0000 -0.0000
vn -0.0000 -1.0000 -0.0000
vt 0.000000 0.519531
vt 0.078125 0.539062
vt 0.078125 0.519531
vt 0.328125 0.449219
vt 0.300781 0.468750
vt 0.300781 0.449219
vt 0.328125 0.468750
vt 0.414062 0.648438
vt 0.492188 0.675781
vt 0.492188 0.648438
vt 0.000000 0.539062
vt 0.414062 0.675781
s 1
usemtl m_4b0f9c16-aa4a-f07a-b072-5d1780238e6a
f 58/67/43 60/68/43 57/69/43
f 57/70/44 62/71/44 61/72/44
f 61/67/45 64/68/45 63/69/45
f 63/72/46 59/73/46 58/70/46
f 62/74/47 59/75/47 64/76/47
f 57/74/48 63/75/48 58/76/48
f 58/67/43 59/77/43 60/68/43
f 57/70/44 60/73/44 62/71/44
f 61/67/45 62/77/45 64/68/45
f 63/72/46 64/71/46 59/73/46
f 62/74/47 60/78/47 59/75/47
f 57/74/48 61/78/48 63/75/48
o cube.007
v 1.062500 0.500000 0.625000
v 1.062500 0.500000 -0.625000
v 1.062500 0.813287 -0.625000
v 1.062500 0.813288 0.625000
v 0.625000 0.500000 0.625000
v 0.625000 0.813288 0.625000
v 0.625000 0.500000 -0.625000
v 0.625000 0.813287 -0.625000
vn 1.0000 -0.0000 -0.0000
vn -0.0000 -0.0000 1.0000
vn -1.0000 -0.0000 -0.0000
vn -0.0000 -0.0000 -1.0000
vn -0.0000 1.0000 -0.0000
vn -0.0000 -1.0000 -0.0000
vt 0.078125 0.519531
vt 0.000000 0.539062
vt 0.000000 0.519531
vt 0.300781 0.449219
vt 0.328125 0.468750
vt 0.328125 0.449219
vt 0.300781 0.468750
vt 0.414062 0.675781
vt 0.492188 0.648438
vt 0.492188 0.675781
vt 0.078125 0.539062
vt 0.414062 0.648438
s 1
usemtl m_4b0f9c16-aa4a-f07a-b072-5d1780238e6a
f 66/79/49 68/80/49 65/81/49
f 65/82/50 70/83/50 69/84/50
f 69/79/51 72/80/51 71/81/51
f 71/84/52 67/85/52 66/82/52
f 70/86/53 67/87/53 72/88/53
f 65/86/54 71/87/54 66/88/54
f 66/79/49 67/89/49 68/80/49
f 65/82/50 68/85/50 70/83/50
f 69/79/51 70/89/51 72/80/51
f 71/84/52 72/83/52 67/85/52
f 70/86/53 68/90/53 67/87/53
f 65/86/54 69/90/54 71/87/54
